<svg width="92" height="92" viewBox="0 0 92 92" fill="none" xmlns="http://www.w3.org/2000/svg">
<g filter="url(#filter0_df_107_1410)">
<circle cx="46" cy="46" r="30" fill="#FF8FB4"/>
</g>
<path fill-rule="evenodd" clip-rule="evenodd" d="M48.343 36.974C49.533 36.974 50.6743 36.5013 51.5158 35.6598C52.3573 34.8183 52.83 33.677 52.83 32.487C52.83 31.297 52.3573 30.1557 51.5158 29.3142C50.6743 28.4727 49.533 28 48.343 28C47.153 28 46.0117 28.4727 45.1702 29.3142C44.3287 30.1557 43.856 31.297 43.856 32.487C43.856 33.677 44.3287 34.8183 45.1702 35.6598C46.0117 36.5013 47.153 36.974 48.343 36.974ZM48.343 34.974C48.6696 34.974 48.993 34.9097 49.2947 34.7847C49.5965 34.6597 49.8706 34.4765 50.1016 34.2456C50.3325 34.0146 50.5157 33.7405 50.6407 33.4387C50.7657 33.137 50.83 32.8136 50.83 32.487C50.83 32.1604 50.7657 31.837 50.6407 31.5353C50.5157 31.2335 50.3325 30.9594 50.1016 30.7284C49.8706 30.4975 49.5965 30.3143 49.2947 30.1893C48.993 30.0643 48.6696 30 48.343 30C47.6834 30 47.0508 30.262 46.5844 30.7284C46.118 31.1948 45.856 31.8274 45.856 32.487C45.856 33.1466 46.118 33.7792 46.5844 34.2456C47.0508 34.712 47.6834 34.974 48.343 34.974ZM32 50C31.4696 50 30.9609 50.2107 30.5858 50.5858C30.2107 50.9609 30 51.4696 30 52V64H28V52C28 50.9391 28.4214 49.9217 29.1716 49.1716C29.9217 48.4214 30.9391 48 32 48H38.911C38.417 42.97 39.471 38.917 42.542 37.269C42.5808 37.2484 42.6209 37.2303 42.662 37.215L42.686 37.205C43.992 36.72 45.399 36.747 46.663 37.401C47.865 38.022 48.674 39.071 49.182 40.161C49.3693 40.5623 49.5437 40.939 49.705 41.291C50.0351 42.0196 50.3771 42.7427 50.731 43.46C51.166 44.325 51.481 44.824 51.755 45.143C51.986 45.413 52.181 45.545 52.431 45.643C52.731 45.76 53.231 45.872 54.14 45.899C54.7304 45.9167 55.2974 46.1341 55.7482 46.5157C56.199 46.8974 56.5071 47.4206 56.622 48H60C61.0609 48 62.0783 48.4214 62.8284 49.1716C63.5786 49.9217 64 50.9391 64 52V64H62V52C62 51.4696 61.7893 50.9609 61.4142 50.5858C61.0391 50.2107 60.5304 50 60 50H56.203C55.955 50.3561 55.6221 50.6447 55.2345 50.8397C54.8469 51.0347 54.4167 51.13 53.983 51.117C52.759 51.08 51.6 50.923 50.532 50.505C50.1747 50.3652 49.8296 50.1963 49.5 50H47.374L47.37 50.023L51.25 53.851C51.51 54.108 51.713 54.416 51.846 54.755L54.076 60.435C54.2013 60.7541 54.2625 61.0948 54.2561 61.4375C54.2497 61.7803 54.1759 62.1185 54.0388 62.4327C53.9018 62.7469 53.7042 63.0311 53.4573 63.2689C53.2104 63.5068 52.9191 63.6937 52.6 63.819C52.2809 63.9443 51.9402 64.0055 51.5975 63.9991C51.2547 63.9927 50.9165 63.9189 50.6023 63.7818C50.2881 63.6448 50.0039 63.4472 49.7661 63.2003C49.5282 62.9534 49.3413 62.6621 49.216 62.343L47.189 57.178L40.152 50.234C40.078 50.1597 40.0079 50.0816 39.942 50H32ZM42.762 50L48.745 55.904C48.8447 56.0021 48.9227 56.1199 48.974 56.25L51.078 61.612C51.1072 61.6866 51.1508 61.7547 51.2064 61.8124C51.2619 61.8702 51.3283 61.9164 51.4017 61.9485C51.4751 61.9805 51.5541 61.9979 51.6342 61.9994C51.7143 62.001 51.7939 61.9867 51.8685 61.9575C51.9431 61.9283 52.0112 61.8847 52.0689 61.8291C52.1267 61.7736 52.1729 61.7072 52.205 61.6338C52.2371 61.5604 52.2544 61.4814 52.2559 61.4013C52.2575 61.3212 52.2432 61.2416 52.214 61.167L49.984 55.487C49.9533 55.4072 49.9059 55.335 49.845 55.275L45.585 51.071C45.4679 50.9556 45.3812 50.813 45.3323 50.6561C45.2835 50.4991 45.2741 50.3325 45.305 50.171L45.338 50H42.762ZM45.721 48L46.185 45.571C46.2239 45.3672 46.3252 45.1804 46.4749 45.0368C46.6246 44.8931 46.8154 44.7995 47.0206 44.7691C47.2259 44.7386 47.4356 44.7728 47.6205 44.8669C47.8055 44.9609 47.9567 45.1102 48.053 45.294C48.455 46.06 48.856 46.71 49.311 47.241C49.854 47.872 50.473 48.335 51.259 48.642C52.034 48.945 52.941 49.085 54.043 49.118C54.2048 49.1229 54.3619 49.0633 54.4798 48.9524C54.5976 48.8415 54.6666 48.6883 54.6715 48.5265C54.6764 48.3647 54.6168 48.2076 54.5059 48.0897C54.395 47.9719 54.2418 47.9029 54.08 47.898C53.051 47.868 52.298 47.738 51.703 47.506C51.121 47.278 50.662 46.941 50.237 46.446C49.802 45.939 49.401 45.266 48.944 44.359C48.5819 43.6251 48.2319 42.8853 47.894 42.14L47.889 42.128C47.7277 41.7767 47.5543 41.4023 47.369 41.005C46.989 40.19 46.445 39.54 45.744 39.177C45.043 38.815 44.244 38.773 43.431 39.062C41.531 40.128 40.41 43.021 40.913 47.916L40.929 48H45.721Z" fill="white"/>
<path fill-rule="evenodd" clip-rule="evenodd" d="M40.557 52.9C40.4333 52.7813 40.281 52.6963 40.115 52.6534C39.9489 52.6105 39.7746 52.611 39.6088 52.6549C39.443 52.6988 39.2913 52.7846 39.1682 52.904C39.0451 53.0235 38.9548 53.1726 38.906 53.337L37.923 56.655L36.005 59.544C35.5697 60.2069 35.4146 61.0153 35.5736 61.7923C35.7327 62.5692 36.1929 63.2516 36.8537 63.6902C37.5145 64.1288 38.322 64.2879 39.0998 64.1327C39.8775 63.9775 40.5622 63.5206 41.004 62.862L43.171 59.598C43.3362 59.3493 43.4632 59.0773 43.548 58.791L44.072 57.021C44.1241 56.8452 44.1268 56.6585 44.0799 56.4812C44.033 56.304 43.9382 56.143 43.806 56.016L40.557 52.9ZM39.797 57.367L40.357 55.479L41.982 57.037L41.63 58.223C41.602 58.319 41.5604 58.4087 41.505 58.492L39.338 61.756C39.2654 61.8655 39.1719 61.9596 39.063 62.0329C38.954 62.1062 38.8316 62.1574 38.7029 62.1834C38.5741 62.2095 38.4415 62.2099 38.3126 62.1847C38.1837 62.1595 38.061 62.1091 37.9515 62.0365C37.8421 61.9639 37.748 61.8704 37.6747 61.7614C37.6013 61.6525 37.5502 61.5301 37.5241 61.4014C37.4981 61.2726 37.4976 61.14 37.5229 61.0111C37.5481 60.8822 37.5984 60.7595 37.671 60.65L39.672 57.636C39.7274 57.5527 39.7694 57.4627 39.798 57.366" fill="white"/>
<defs>
<filter id="filter0_df_107_1410" x="0" y="0" width="92" height="92" filterUnits="userSpaceOnUse" color-interpolation-filters="sRGB">
<feFlood flood-opacity="0" result="BackgroundImageFix"/>
<feColorMatrix in="SourceAlpha" type="matrix" values="0 0 0 0 0 0 0 0 0 0 0 0 0 0 0 0 0 0 127 0" result="hardAlpha"/>
<feMorphology radius="4" operator="dilate" in="SourceAlpha" result="effect1_dropShadow_107_1410"/>
<feOffset/>
<feGaussianBlur stdDeviation="6"/>
<feComposite in2="hardAlpha" operator="out"/>
<feColorMatrix type="matrix" values="0 0 0 0 1 0 0 0 0 1 0 0 0 0 1 0 0 0 1 0"/>
<feBlend mode="normal" in2="BackgroundImageFix" result="effect1_dropShadow_107_1410"/>
<feBlend mode="normal" in="SourceGraphic" in2="effect1_dropShadow_107_1410" result="shape"/>
<feGaussianBlur stdDeviation="1" result="effect2_foregroundBlur_107_1410"/>
</filter>
</defs>
</svg>
