<svg width="92" height="92" viewBox="0 0 92 92" fill="none" xmlns="http://www.w3.org/2000/svg">
<g filter="url(#filter0_df_107_1379)">
<circle cx="46" cy="46" r="30" fill="#FFD953"/>
</g>
<g clip-path="url(#clip0_107_1379)">
<path d="M55.873 35.1586C53.4222 32.8574 50.1854 31.5786 46.8236 31.5833C39.5114 31.5833 33.584 37.5107 33.584 44.8228C33.584 52.135 39.5114 58.0624 46.8236 58.0624C50.3072 58.067 53.6513 56.6941 56.1268 54.243L46.5006 44.4999L55.873 35.1586Z" stroke="white" stroke-width="2" stroke-linejoin="round"/>
<path d="M56.8343 47.0833C57.5195 47.0833 58.1765 46.8111 58.661 46.3267C59.1455 45.8422 59.4176 45.1851 59.4176 44.5C59.4176 43.8148 59.1455 43.1577 58.661 42.6733C58.1765 42.1888 57.5195 41.9166 56.8343 41.9166C56.1492 41.9166 55.4921 42.1888 55.0076 42.6733C54.5231 43.1577 54.251 43.8148 54.251 44.5C54.251 45.1851 54.5231 45.8422 55.0076 46.3267C55.4921 46.8111 56.1492 47.0833 56.8343 47.0833Z" stroke="white" stroke-width="2" stroke-linejoin="round"/>
<path d="M41.9798 37.3958V42.5624M39.3965 39.9791H44.5632" stroke="white" stroke-width="2" stroke-linecap="round" stroke-linejoin="round"/>
</g>
<defs>
<filter id="filter0_df_107_1379" x="0" y="0" width="92" height="92" filterUnits="userSpaceOnUse" color-interpolation-filters="sRGB">
<feFlood flood-opacity="0" result="BackgroundImageFix"/>
<feColorMatrix in="SourceAlpha" type="matrix" values="0 0 0 0 0 0 0 0 0 0 0 0 0 0 0 0 0 0 127 0" result="hardAlpha"/>
<feMorphology radius="4" operator="dilate" in="SourceAlpha" result="effect1_dropShadow_107_1379"/>
<feOffset/>
<feGaussianBlur stdDeviation="6"/>
<feComposite in2="hardAlpha" operator="out"/>
<feColorMatrix type="matrix" values="0 0 0 0 1 0 0 0 0 1 0 0 0 0 1 0 0 0 1 0"/>
<feBlend mode="normal" in2="BackgroundImageFix" result="effect1_dropShadow_107_1379"/>
<feBlend mode="normal" in="SourceGraphic" in2="effect1_dropShadow_107_1379" result="shape"/>
<feGaussianBlur stdDeviation="1" result="effect2_foregroundBlur_107_1379"/>
</filter>
<clipPath id="clip0_107_1379">
<rect width="31" height="31" fill="white" transform="translate(31 31)"/>
</clipPath>
</defs>
</svg>
