<svg width="92" height="92" viewBox="0 0 92 92" fill="none" xmlns="http://www.w3.org/2000/svg">
<g filter="url(#filter0_df_107_1395)">
<circle cx="46" cy="46" r="30" fill="#DEA9E8"/>
</g>
<path d="M33.4998 53.8125C33.4998 55.1054 34.0134 56.3454 34.9276 57.2597C35.8419 58.1739 37.0819 58.6875 38.3748 58.6875C38.3748 59.7649 38.8028 60.7983 39.5647 61.5601C40.3265 62.322 41.3598 62.75 42.4373 62.75C43.5147 62.75 44.548 62.322 45.3099 61.5601C46.0718 60.7983 46.4998 59.7649 46.4998 58.6875C46.4998 59.7649 46.9278 60.7983 47.6897 61.5601C48.4515 62.322 49.4848 62.75 50.5623 62.75C51.6397 62.75 52.673 62.322 53.4349 61.5601C54.1968 60.7983 54.6248 59.7649 54.6248 58.6875C55.489 58.6876 56.3378 58.4579 57.0841 58.022C57.8303 57.5861 58.4473 56.9596 58.8717 56.2067C59.2962 55.4539 59.5129 54.6017 59.4996 53.7376C59.4863 52.8734 59.2435 52.0283 58.7962 51.2889C59.9084 51.074 60.9111 50.4785 61.6322 49.6048C62.3532 48.7311 62.7476 47.6336 62.7476 46.5008C62.7476 45.368 62.3532 44.2705 61.6322 43.3968C60.9111 42.5231 59.9084 41.9277 58.7962 41.7128C59.244 40.9733 59.4871 40.128 59.5006 39.2636C59.5141 38.3992 59.2975 37.5468 58.873 36.7937C58.4485 36.0406 57.8313 35.4139 57.0848 34.9779C56.3383 34.5419 55.4893 34.3123 54.6248 34.3125C54.6248 33.2351 54.1968 32.2017 53.4349 31.4399C52.673 30.678 51.6397 30.25 50.5623 30.25C49.4848 30.25 48.4515 30.678 47.6897 31.4399C46.9278 32.2017 46.4998 33.2351 46.4998 34.3125C46.4998 33.2351 46.0718 32.2017 45.3099 31.4399C44.548 30.678 43.5147 30.25 42.4373 30.25C41.3598 30.25 40.3265 30.678 39.5647 31.4399C38.8028 32.2017 38.3748 33.2351 38.3748 34.3125C37.5105 34.3124 36.6618 34.5421 35.9155 34.978C35.1692 35.414 34.5523 36.0404 34.1278 36.7933C33.7034 37.5461 33.4867 38.3983 33.5 39.2624C33.5132 40.1266 33.756 40.9717 34.2034 41.7111C33.0912 41.926 32.0884 42.5215 31.3674 43.3952C30.6463 44.2689 30.252 45.3664 30.252 46.4992C30.252 47.632 30.6463 48.7295 31.3674 49.6032C32.0884 50.4769 33.0912 51.0723 34.2034 51.2873C33.7427 52.049 33.4994 52.9223 33.4998 53.8125Z" stroke="white" stroke-width="2" stroke-linecap="round" stroke-linejoin="round"/>
<path d="M39.1875 50.5625L42.1807 41.5827C42.2559 41.3587 42.3995 41.1638 42.5914 41.0258C42.7833 40.8878 43.0136 40.8135 43.25 40.8135C43.4864 40.8135 43.7167 40.8878 43.9086 41.0258C44.1005 41.1638 44.2441 41.3587 44.3192 41.5827L47.3125 50.5625M52.1875 40.8125V50.5625M40.8125 47.3125H45.6875" stroke="white" stroke-width="2" stroke-linecap="round" stroke-linejoin="round"/>
<defs>
<filter id="filter0_df_107_1395" x="0" y="0" width="92" height="92" filterUnits="userSpaceOnUse" color-interpolation-filters="sRGB">
<feFlood flood-opacity="0" result="BackgroundImageFix"/>
<feColorMatrix in="SourceAlpha" type="matrix" values="0 0 0 0 0 0 0 0 0 0 0 0 0 0 0 0 0 0 127 0" result="hardAlpha"/>
<feMorphology radius="4" operator="dilate" in="SourceAlpha" result="effect1_dropShadow_107_1395"/>
<feOffset/>
<feGaussianBlur stdDeviation="6"/>
<feComposite in2="hardAlpha" operator="out"/>
<feColorMatrix type="matrix" values="0 0 0 0 1 0 0 0 0 1 0 0 0 0 1 0 0 0 1 0"/>
<feBlend mode="normal" in2="BackgroundImageFix" result="effect1_dropShadow_107_1395"/>
<feBlend mode="normal" in="SourceGraphic" in2="effect1_dropShadow_107_1395" result="shape"/>
<feGaussianBlur stdDeviation="1" result="effect2_foregroundBlur_107_1395"/>
</filter>
</defs>
</svg>
