<svg width="92" height="92" viewBox="0 0 92 92" fill="none" xmlns="http://www.w3.org/2000/svg">
<g filter="url(#filter0_df_107_1401)">
<circle cx="46" cy="46" r="30" fill="#00C7BE"/>
</g>
<path d="M62.875 52.75V50.5H60.5125C60.3662 49.796 60.0863 49.1265 59.6879 48.5279L61.3641 46.8516L59.7734 45.2609L58.0971 46.9371C57.4984 46.5391 56.829 46.2596 56.125 46.1136V43.75H53.875V46.1136C53.171 46.2596 52.5016 46.5391 51.9029 46.9371L50.2266 45.2609L48.6359 46.8516L50.3121 48.5279C49.9137 49.1265 49.6338 49.796 49.4875 50.5H47.125V52.75H49.4875C49.6338 53.4666 49.9195 54.1326 50.311 54.7221L48.6347 56.3984L50.2255 57.9891L51.9018 56.3129C52.5007 56.7114 53.1706 56.9913 53.875 57.1375V59.5H56.125V57.1375C56.829 56.9916 57.4984 56.712 58.0971 56.314L59.7734 57.9903L61.3641 56.3995L59.6879 54.7232C60.0864 54.1243 60.3663 53.4544 60.5125 52.75H62.875ZM55 55C54.1049 55 53.2464 54.6444 52.6135 54.0115C51.9806 53.3786 51.625 52.5201 51.625 51.625C51.625 50.7299 51.9806 49.8714 52.6135 49.2385C53.2464 48.6056 54.1049 48.25 55 48.25C55.8951 48.25 56.7536 48.6056 57.3865 49.2385C58.0194 49.8714 58.375 50.7299 58.375 51.625C58.375 52.5201 58.0194 53.3786 57.3865 54.0115C56.7536 54.6444 55.8951 55 55 55Z" fill="white"/>
<path d="M51.625 34.75C51.625 31.6484 49.1016 29.125 46 29.125C43.9975 29.125 42.1311 30.2027 41.1287 31.9375C40.7705 32.561 40.5302 33.2452 40.42 33.9557C39.0934 33.0094 37.5046 32.5005 35.875 32.5C31.5325 32.5 28 36.0325 28 40.375C28.0014 41.8168 28.3986 43.2304 29.1483 44.462C29.898 45.6935 30.9713 46.6956 32.2514 47.359C31.0375 48.3918 30.25 49.9105 30.25 51.625C30.25 54.7266 32.7734 57.25 35.875 57.25C36.7008 57.25 37.4804 57.061 38.1869 56.7393C38.4985 59.5484 40.8588 61.75 43.75 61.75C44.489 61.752 45.2211 61.6075 45.9039 61.3248C46.5867 61.0421 47.2067 60.6268 47.728 60.103L46.1361 58.5111C45.8235 58.8255 45.4517 59.0748 45.0421 59.2446C44.6325 59.4143 44.1934 59.5011 43.75 59.5C41.8892 59.5 40.375 57.9858 40.375 56.125C40.375 54.2642 41.8892 52.75 43.75 52.75V50.5C42.9231 50.5 42.1446 50.6901 41.4381 51.0107C41.2793 49.5917 40.5867 48.2863 39.5009 47.359C40.7805 46.6953 41.8534 45.6931 42.6027 44.4616C43.3519 43.2301 43.7488 41.8165 43.75 40.375C43.75 40.2096 43.7343 40.0476 43.7241 39.8845C44.4216 40.195 45.1889 40.375 46 40.375C49.1016 40.375 51.625 37.8516 51.625 34.75ZM43.075 33.0625C43.3723 32.5499 43.7989 32.1242 44.3121 31.8281C44.8254 31.532 45.4074 31.3758 46 31.375C47.8608 31.375 49.375 32.8893 49.375 34.75C49.375 36.6108 47.8608 38.125 46 38.125C44.1392 38.125 42.625 36.6108 42.625 34.75H42.5913C42.6318 34.102 42.7847 33.5665 43.075 33.0625ZM39.25 51.625C39.25 53.4858 37.7358 55 35.875 55C34.0142 55 32.5 53.4858 32.5 51.625C32.5 49.7642 34.0142 48.25 35.875 48.25C37.7358 48.25 39.25 49.7642 39.25 51.625ZM35.875 46C32.7734 46 30.25 43.4766 30.25 40.375C30.25 37.2734 32.7734 34.75 35.875 34.75C38.9766 34.75 41.5 37.2734 41.5 40.375C41.5 43.4766 38.9766 46 35.875 46Z" fill="white"/>
<defs>
<filter id="filter0_df_107_1401" x="0" y="0" width="92" height="92" filterUnits="userSpaceOnUse" color-interpolation-filters="sRGB">
<feFlood flood-opacity="0" result="BackgroundImageFix"/>
<feColorMatrix in="SourceAlpha" type="matrix" values="0 0 0 0 0 0 0 0 0 0 0 0 0 0 0 0 0 0 127 0" result="hardAlpha"/>
<feMorphology radius="4" operator="dilate" in="SourceAlpha" result="effect1_dropShadow_107_1401"/>
<feOffset/>
<feGaussianBlur stdDeviation="6"/>
<feComposite in2="hardAlpha" operator="out"/>
<feColorMatrix type="matrix" values="0 0 0 0 1 0 0 0 0 1 0 0 0 0 1 0 0 0 1 0"/>
<feBlend mode="normal" in2="BackgroundImageFix" result="effect1_dropShadow_107_1401"/>
<feBlend mode="normal" in="SourceGraphic" in2="effect1_dropShadow_107_1401" result="shape"/>
<feGaussianBlur stdDeviation="1" result="effect2_foregroundBlur_107_1401"/>
</filter>
</defs>
</svg>
